<svg xmlns="http://www.w3.org/2000/svg" viewBox="0 0 24 24" height="18" width="18"><g><path d="M12,0A12,12,0,1,0,24,12,12,12,0,0,0,12,0Zm0,22A10,10,0,1,1,22,12,10,10,0,0,1,12,22Z" style="&#10;    stroke: #f5f7fa;&#10;"/><path d="M16.49,14.13a1,1,0,0,0-1.36.38,3.68,3.68,0,0,1-3.13,2,3.68,3.68,0,0,1-3.13-2,1,1,0,1,0-1.74,1,5.62,5.62,0,0,0,4.87,3,5.62,5.62,0,0,0,4.87-3A1,1,0,0,0,16.49,14.13Z" style="fill: currentColor;stroke: #f5f7fa;"/><circle cx="8" cy="9" r="2" style="fill: currentColor;stroke: #f5f7fa;"/><circle cx="16" cy="9" r="2" style="fill: currentColor;stroke: #f5f7fa;"/></g></svg>
